<svg xmlns="http://www.w3.org/2000/svg" id="Layer_1" data-name="Layer 1" viewBox="0 0 2000 2000"><defs><style>.cls-1{fill:#e2a63b}.cls-2{fill:#fef6df}.cls-3{fill:#202020}.cls-4{fill:#1c4668}</style></defs><path d="M479.2 703.48a64.1 64.1 0 0 1-17.38-8.76L271.54 559c-28.73-20.49-35.43-60.53-14.94-89.25 16.31-22.85 45.19-32.38 71.87-23.71a64 64 0 0 1 17.39 8.77l190.27 135.72c28.73 20.49 35.43 60.53 14.94 89.25-16.31 22.85-45.19 32.38-71.87 23.71Z" class="cls-3"/><path d="M1264.98 1867.59c-18.94 0-36.34-10.38-45.42-27.08L1000 1436.16l-219.56 404.35c-9.08 16.71-26.48 27.08-45.42 27.09-14.99 0-29.24-6.45-39.1-17.69-9.79-11.16-14.28-26.06-12.33-40.87l60.04-456.17-415.3 198.07c-7.06 3.37-14.58 5.08-22.35 5.08-20.67 0-39.33-12.33-47.54-31.43-8.16-18.99-4.23-40.98 10.04-56.03l316.72-333.77-452.4-83.87c-24.53-4.54-42.34-25.95-42.34-50.9s17.8-46.37 42.33-50.92l452.41-83.87 158.44-218.08-60.04-456.18c-1.95-14.81 2.55-29.7 12.33-40.87a52 52 0 0 1 39.09-17.69c18.94 0 36.35 10.38 45.42 27.09L1000 563.85l219.56-404.35c9.07-16.71 26.48-27.09 45.42-27.09 14.99 0 29.24 6.45 39.09 17.69 9.79 11.16 14.28 26.05 12.33 40.87l-60.04 456.18 158.44 218.08 452.4 83.86c24.54 4.56 42.35 25.97 42.34 50.93 0 24.95-17.82 46.36-42.35 50.91l-452.4 83.86 316.71 333.76c14.27 15.05 18.21 37.04 10.05 56.03-8.21 19.09-26.87 31.43-47.54 31.43-7.77 0-15.3-1.71-22.37-5.09l-415.29-198.06 60.04 456.18c1.95 14.81-2.55 29.7-12.33 40.86a52 52 0 0 1-39.09 17.69Z" class="cls-3"/><path d="m1004.61 652.89 255.85-471.18c2.77-5.11 10.57-2.58 9.81 3.19l-69.96 531.58c-.54 4.12 3.7 7.21 7.46 5.42l120.94 166.47c-2.86 3.02-1.24 8.01 2.85 8.76l527.18 97.73c5.72 1.06 5.72 9.25 0 10.31l-527.18 97.73c-4.09.76-5.71 5.75-2.85 8.76l369.05 388.93c4 4.22-.81 10.84-6.06 8.34l-483.94-230.81c-3.75-1.79-8 1.29-7.46 5.42l69.96 531.58c.76 5.76-7.03 8.3-9.81 3.19l-255.85-471.18c-1.98-3.66-7.23-3.66-9.22 0l-255.85 471.18c-2.77 5.11-10.57 2.58-9.81-3.19l69.96-531.58c.54-4.12-3.7-7.21-7.46-5.42l-483.94 230.81c-5.25 2.5-10.06-4.12-6.06-8.34l369.05-388.93c2.86-3.02 1.24-8.01-2.85-8.76l-527.18-97.73c-5.72-1.06-5.72-9.25 0-10.31l527.18-97.73c4.09-.76 5.71-5.75 2.85-8.76L792.21 721.9c3.75 1.79 8-1.29 7.46-5.42L729.71 184.9c-.76-5.76 7.03-8.3 9.81-3.19l255.85 471.18c1.98 3.66 7.23 3.66 9.22 0Z" class="cls-1"/><path d="M1000 1664.91c-177.61 0-344.58-69.16-470.16-194.75C404.26 1344.58 335.09 1177.6 335.09 1000s69.16-344.58 194.75-470.16C655.42 404.26 822.4 335.09 1000 335.09s344.58 69.16 470.16 194.75c125.58 125.58 194.75 292.56 194.75 470.16s-69.16 344.58-194.75 470.16c-125.58 125.58-292.56 194.75-470.16 194.75" class="cls-3"/><circle cx="1000" cy="1000" r="618.37" class="cls-3"/><path d="M1000 404.9c80.35 0 158.28 15.73 231.63 46.76 70.86 29.97 134.51 72.88 189.17 127.54s97.57 118.31 127.55 189.17c31.02 73.35 46.76 151.29 46.76 231.63s-15.73 158.28-46.76 231.63c-29.97 70.86-72.88 134.51-127.55 189.17-54.66 54.66-118.31 97.57-189.17 127.54-73.35 31.03-151.28 46.76-231.63 46.76s-158.28-15.73-231.63-46.76c-70.86-29.97-134.51-72.88-189.17-127.54s-97.57-118.31-127.55-189.17c-31.02-73.35-46.76-151.29-46.76-231.63s15.73-158.28 46.76-231.63c29.97-70.86 72.88-134.51 127.55-189.17 54.66-54.66 118.31-97.57 189.17-127.54 73.35-31.03 151.28-46.76 231.63-46.76m0-23.27c-341.52 0-618.37 276.85-618.37 618.37s276.85 618.37 618.37 618.37 618.37-276.85 618.37-618.37S1341.52 381.63 1000 381.63" class="cls-4"/><path d="m515.93 1237.39-11.45-24.31 12.3-11.73 1.15 10.48 5.75 12.2 3.43 2.7 4.37.1 5.75-2.71 1.64-4.55-3.15-14.72 4.44-12.35 13.26-6.25 16.91 6.08 10.83 22.98-11.18 10.67-1.1-9.21-5.42-11.49-3.43-2.7-4.37-.1-3.54 1.67-1.64 4.55 3.15 14.72-4.44 12.35-16.36 7.7-16.91-6.08ZM600.92 1273.13l-4.72-7.43-1.35-.3-38.78 24.63-5.85 7.19-11.01-17.33 9-2.24 38.78-24.63.3-1.35-4.72-7.43-8.39-6.83 16.5-4.11 23.58 37.13-10.73 13.19-2.62-10.5ZM595.79 1356.75l-16.37-19.43 1.53-17.9 32.89-27.7 17.9 1.53 16.37 19.43-1.53 17.9-32.89 27.7zm36.98-34.98 1.73-4.01-1.02-4.25-5.04-5.98-4.01-1.73-4.25 1.02-24.66 20.77-1.73 4.01 1.02 4.25 5.04 5.98 4.01 1.73 4.25-1.02zM646.04 1406.57l10.89-24.41-.8-2.04-5.43-4.92-1.38.07-11.8 13.05-3.8 7.11-13.77-12.46 6.7-4.49 35.41-39.13 3.8-7.11 29.71 26.89.83 16.57-11.15 12.32-15.19.76-8.01 19.77-2.25 10.49-13.77-12.46Zm34.5-36.66 1.17-4.21-1.98-5.09-8.7-7.87-1.38.07-11.15 12.32.07 1.38 8.7 7.87 5.26 1.47 4.07-1.59 3.93-4.35ZM718.16 1459.73l5.91-5.47 19.25-29.45 2.55-3-3.37 2.47-34.76 22.81-.41-.27 6.95-40.99.91-4.07-1.73 3.54-19.25 29.45-2.64 7.61-13.91-9.09 5.91-5.47 28.87-44.17 2.64-7.61 15.95 10.43-5.5 33.42-.82 2.15 1.64-1.61 28.4-18.45 15.95 10.43-5.91 5.47-28.87 44.17-2.64 7.61-15.13-9.89ZM789.3 1496.69l-34.45-16.3 5.11-6.23 22.57-47.7 1.57-7.9 17.23 8.15-6.39 7.79-19.02 40.19.7 1.95 13.69 6.48 10.74 1.3-11.75 12.28ZM809.92 1504.56l4.47-6.71 17.75-49.7.79-8.02 17.49 6.25-4.47 6.7-17.76 49.7-.79 8.02-17.49-6.25ZM902.76 1499.03l-3.04 12.34-.45 5.93-15.38 9.3-23.73-5.85-9.3-15.38 10.06-40.81 16.56-10.01 26.58 6.55 1.36 16.94-8.96-5.73-13-3.21-5.33 1.2-3.54 4.16-7.14 28.95.96 4.26 3.33 2.84 9.49 2.34 3.55-2.15 3.27-13.29-1.92-8.53 20.88 5.15-4.25 4.99ZM951.64 1536.87l2.74-7.58 2.3-22.36-.87-1.07-16.53-1.7-1.07.87-2.29 22.36 1.15 7.98-18.47-1.9 2.74-7.58 5.39-52.5-1.15-7.98 18.47 1.9-2.74 7.58-1.7 16.53.87 1.07 16.53 1.7 1.07-.87 1.7-16.52-1.15-7.98 18.47 1.9-2.74 7.58-5.39 52.5 1.15 7.98-18.47-1.9ZM1031.81 1482.53l-8.79.26-.95 1 1.37 45.91 3.19 8.7-20.51.61 2.67-8.88-1.37-45.91-1-.95-8.79.26-10.15 3.72 4.89-16.28 43.95-1.31 5.85 15.96-10.36-3.11ZM1118.64 1525.93l-26.31 5.46-8.54-14.7 10.46 1.32 13.2-2.74 3.43-2.71 1.12-4.22-1.29-6.22-4.04-2.65-15.05-.37-10.98-7.21-2.98-14.35 9.86-15.02 24.88-5.16 7.76 13.36-9.21-1.09-12.44 2.58-3.43 2.71-1.12 4.23.8 3.83 4.04 2.65 15.05.37 10.98 7.2 3.67 17.7-9.86 15.02ZM1189.57 1505.11l-38.04 12.6-.6-8.04-16.6-50.1-4.32-6.81 37.11-12.3 9.25 12.38-9.27-.02-16.7 5.54-.62 1.23 3.69 11.13 1.24.62 7.89-2.61 6.19-4.62 5.23 15.77h-7.73l-7.89 2.6-.62 1.23 5.07 15.31 1.85.93 16.24-5.38 8.67-6.48-.03 17ZM1246.43 1479.93l-34.56 16.06-1.52-7.91-22.24-47.86-5.07-6.26 17.28-8.03 1.9 9.89 18.74 40.32 1.95.71 13.74-6.39 7.86-7.43 1.92 16.89ZM1266.65 1402.34l-15.01 9.18-.32 1.34 7.14 11.67 1.34.32 7.09-4.34 4.98-5.91 8.67 14.17-7.53 1.74-7.09 4.33-.32 1.34 9.69 15.84 7.18 7.06-16.26 9.94-2.41-7.69-27.53-45.02-5.74-5.65 33.35-20.39 11.82 9.96-9.03 2.09ZM1295.46 1417.93l-6.44-8.61 21.9-16.4 6.44 8.61zM1373.82 1388.32l-3.92-7.04-15.37-16.4-1.38-.05-12.12 11.36-.05 1.38 15.37 16.4 6.77 4.37-13.55 12.7-3.92-7.04-36.08-38.5-6.77-4.37 13.55-12.7 3.92 7.04 11.36 12.12 1.38.04 12.12-11.36.05-1.38-11.36-12.12-6.77-4.37 13.55-12.7 3.92 7.04 36.09 38.5 6.77 4.37-13.55 12.7ZM1428.76 1327.29l-25.55 30.86-4.78-6.49-40.65-33.65-7.27-3.48 24.93-30.11 14.41 5.58-7.87 4.9-11.22 13.55.13 1.37 9.03 7.48 1.38-.13 5.3-6.4 2.79-7.2 12.8 10.59-6.55 4.09-5.3 6.4.13 1.37 12.42 10.28 2.07-.2 10.9-13.17 3.91-10.08 8.99 14.42ZM1463.63 1275.83l-20.81 31.93-5.48-5.91-44.21-28.82-7.62-2.63 10.41-15.97 6.85 7.39 37.26 24.28 2.03-.43 8.27-12.69 2.74-10.46 10.58 13.31ZM1468.81 1210.51l-8.97 18.46.45 1.31 13.19 6.41 9.86 2.07-8.33 17.14-6.18-5.17-47.47-23.07-7.89-1.66 17.51-36.04 15.67-5.42 15.82 7.69 6.33 18.29Zm-23.28-9.13-4.37.05-4.33 3.33-5.13 10.55.45 1.31 14.95 7.26 1.31-.45 5.13-10.55-.06-5.46-2.66-3.47-5.27-2.56Z" class="cls-2"/><path d="M370.12 793.93c20.83-63.62 51.27-123.74 90.46-178.69 39.2-54.95 86.13-103.3 139.51-143.71l28.64-21.69c13.46-10.19 32.93-2.45 35.72 14.2l14.6 87.27-20.52 16.2c-40.6 32.06-76.6 69.93-107.02 112.58s-54.51 89.02-71.6 137.84l-8.64 24.68-58.42 9.78c-29.77 4.98-54.2-23.43-44.8-52.12l2.08-6.35Z" class="cls-3"/><path d="M498.95 660.07c-3.51 0-7.05-1.05-10.12-3.25L298.56 521.1c-7.85-5.6-9.67-16.5-4.07-24.34 5.59-7.84 16.5-9.67 24.34-4.07L509.1 628.41c7.85 5.6 9.67 16.5 4.07 24.34-3.4 4.77-8.77 7.32-14.22 7.32" class="cls-1"/><path d="M1205.07 1113.68a115.3 115.3 0 0 1 23.78 22.74l47.57 60.75-72.93-25.2c-10.43-3.6-20.26-8.68-29.24-15.08L496.02 673.11l30.82-43.21zm13.51-18.95L527.89 602.07l-57.85 81.1 690.69 492.66a138.3 138.3 0 0 0 35.16 18.13l131.5 45.44c4.7 1.62 8.62-3.88 5.56-7.79l-85.78-109.54a138.3 138.3 0 0 0-28.59-27.34" class="cls-1"/><path d="m631.13 532.82-4.36-26.05c-48.75 36.91-92.82 81.73-130.2 134.14s-65.41 108.67-84.44 166.78l26.05-4.36c18.47-52.74 44.33-102.63 77.34-148.91s71.76-86.97 115.61-121.6" class="cls-1"/><path d="M1520.8 703.48a64.1 64.1 0 0 0 17.38-8.76L1728.46 559c28.73-20.49 35.43-60.53 14.94-89.25-16.31-22.85-45.19-32.38-71.87-23.71a64 64 0 0 0-17.39 8.77l-190.27 135.72c-28.73 20.49-35.43 60.53-14.94 89.25 16.31 22.85 45.19 32.38 71.87 23.71Z" class="cls-3"/><path d="M1629.88 793.93c-20.83-63.62-51.27-123.74-90.46-178.69-39.2-54.95-86.13-103.3-139.51-143.71l-28.64-21.69c-13.46-10.19-32.93-2.45-35.72 14.2l-14.6 87.27 20.52 16.2c40.6 32.06 76.6 69.93 107.02 112.58s54.51 89.02 71.6 137.84l8.64 24.68 58.42 9.78c29.77 4.98 54.2-23.43 44.8-52.12l-2.08-6.35Z" class="cls-3"/><path d="M1501.05 660.07c-5.45 0-10.82-2.55-14.22-7.32-5.6-7.85-3.77-18.74 4.07-24.34l190.27-135.72c7.85-5.6 18.75-3.77 24.34 4.07 5.6 7.85 3.77 18.74-4.07 24.34l-190.27 135.72a17.38 17.38 0 0 1-10.12 3.25" class="cls-1"/><path d="m794.93 1113.68 678.23-483.78 30.82 43.21-678.23 483.78a114.9 114.9 0 0 1-29.24 15.08l-72.93 25.2 47.57-60.75c6.8-8.68 14.8-16.34 23.78-22.74m-13.51-18.95c-10.79 7.7-20.42 16.9-28.59 27.34l-85.78 109.54c-3.07 3.91.86 9.41 5.56 7.79l131.5-45.44a138.6 138.6 0 0 0 35.16-18.13l690.69-492.66-57.85-81.1z" class="cls-1"/><path d="m1368.87 532.82 4.36-26.05c48.75 36.91 92.82 81.73 130.2 134.14s65.41 108.67 84.44 166.78l-26.05-4.36c-18.47-52.74-44.33-102.63-77.34-148.91s-71.76-86.97-115.61-121.6" class="cls-1"/><path d="m907.14 902.14 101.57-234.23 89.15 239.23 234.23 101.57-239.23 89.15-101.57 234.23-89.15-239.23-234.23-101.57z" class="cls-3"/><path d="m1005.44 792.42 52.26 140.25a23.24 23.24 0 0 0 12.55 13.22l137.32 59.54-140.25 52.26a23.24 23.24 0 0 0-13.22 12.55l-59.54 137.32-52.26-140.25a23.24 23.24 0 0 0-12.55-13.22l-137.32-59.54 140.25-52.26a23.24 23.24 0 0 0 13.22-12.55zm1.64-62.25-82.52 190.32-194.39 72.44 190.32 82.52 72.44 194.39 82.52-190.32 194.39-72.44-190.32-82.52-72.43-194.39Z" class="cls-4"/><path d="M705.5 726.14c-4.77-7.2-12.95-10.91-21.12-9.58-6.48 1.05-12.08 5.13-15.39 10.96l-5.92-4.64c2.84-4.7 4.06-10.43 3.23-16.15-1.25-8.69-6.99-15.89-14.83-18.6l-31.54-10.92c-8.95-3.09-18.76.26-24.33 8.34l-42.07 60.97c-4.15 6.01-5.34 13.78-3.2 20.89.75 2.49 1.89 4.78 3.32 6.82-2.87-.51-5.84-.45-8.74.3-6.8 1.76-12.4 6.89-15.05 13.8l-15.32 39.89a24.7 24.7 0 0 0-1.62 8.15c-1.76 2.02-3.2 4.39-4.2 7.02l-15.32 39.89c-2.65 6.91-2.04 14.75 1.66 21.09 2.28 3.91 5.56 6.95 9.38 8.84l-4.94 1.04c-9.17 1.93-16.17 9.86-17.41 19.73l-10 79.26c-1.25 9.87 3.54 19.49 11.91 23.93l31.5 16.72c3.08 1.63 6.41 2.44 9.73 2.44 4.69 0 9.34-1.61 13.22-4.74 6.61-5.36 9.8-14.25 8.22-22.95l-.72-3.97 43.89 6.29 10.64 5.61c6.3 3.32 13.72 3.2 19.93-.32s10.44-10.01 11.38-17.44l5.71-45.24c.74-5.89-.69-11.78-3.86-16.54 2.99-2.47 5.4-5.73 6.87-9.56l15.32-39.89c1.01-2.62 1.54-5.38 1.62-8.15 1.76-2.02 3.2-4.39 4.21-7.02l15.32-39.89c.12-.31.19-.62.3-.94 1.62-1.32 3.1-2.86 4.33-4.66l43.7-63.33c5.57-8.07 5.67-19.03.25-27.21l-20.03-30.23Zm-106.99 223.3.48.44-42.87-6.14 1.68-3.62c1.11-2.41 1.76-4.96 2.05-7.54l38.66 16.87Zm-20.49-160.39-6.21-2.71-2.31-2.1 4.3 1.5zM1158.82 558.75l-5.05-37.11c-1.34-9.86-8.42-17.71-17.6-19.54l-73.76-14.66c-6.61-1.33-13.26.71-18.17 5.19-4.3-6.53-11.46-10.32-19.1-9.87l-40.2 2.48c-4.74.29-9.09 2.19-12.55 5.21-3.76-2.57-8.28-3.92-13.03-3.63l-42.57 2.62c-8.49.52-15.92 6.25-19.04 14.67-.28.76-.48 1.54-.68 2.32-5.69-6.38-14.37-8.86-22.4-6.15l-67.69 22.88c-6.67 2.26-11.93 7.79-14.13 14.87a24.5 24.5 0 0 0-1.08 7.72c-2.08-2.31-4.59-4.19-7.44-5.43-6.48-2.82-13.84-2.16-19.78 1.78l-30.46 20.19c-4.36 2.89-7.57 7.29-9.17 12.36-4.96-.71-10.08.4-14.45 3.3l-30.77 20.39c-6.15 4.08-10.01 11.14-10.29 18.86-.28 7.71 3.05 15.08 8.89 19.65l7.73 6.05 43.29 74.19 2.36 10.34c1.66 7.25 6.48 13.21 12.96 16.04a20.6 20.6 0 0 0 8.25 1.73c4.02 0 8.02-1.18 11.53-3.51l31.24-20.7c5.89-3.9 9.69-10.56 10.24-17.92 6.4 2.72 13.68 2.06 19.6-1.86l19.43-12.88c1.15-.76 2.22-1.64 3.21-2.61.11 0 .22.01.33.01 2.21 0 4.44-.36 6.6-1.09l70.31-23.77a21.3 21.3 0 0 0 5.16-2.59l33.48-2.06c6.03-.37 11.41-3.34 15.16-7.89 4.21 4.06 9.88 6.31 15.91 5.98l43.49-2.68s.09-.02.14-.02c2.92 2.76 6.5 4.7 10.45 5.48l42.1 8.37c1.33.27 2.67.4 4 .4 5.58 0 11-2.28 15.1-6.46 5.08-5.19 7.5-12.66 6.51-20.08l-1.67-12.52 8.12-46.39 3.31 1.97c7.25 4.32 16.18 3.87 23.02-1.15s10.42-13.74 9.23-22.51Zm-138.46 5.5 3.4-7.26c4.76 6.72 12.57 10.24 20.44 9.05l3.75-.57-5.91 33.76-21.69-34.98Zm-109.57 16.01-2.22-7.46c4.89-2.02 9.04-5.88 11.53-11.02.86-1.77 1.46-3.64 1.87-5.53l9.36 15.35-4.09 8.49a20.63 20.63 0 0 0-16.45.17m-107.48-7.24-3.68-6.31-.75-3.28 2.82 4.16 1.62 5.43ZM1527.95 986.68l-5.38-44.1c-.9-7.4-5.08-13.89-11.23-17.45s-13.54-3.76-19.85-.54l-9.01 4.6-35.35 4.9 35.53-27.53 5.66-.76c6.67-.9 12.58-5.02 16.02-11.18 3.44-6.15 4.03-13.66 1.6-20.34l-21.2-58.18c-2.43-6.68-7.62-11.79-14.06-13.86s-13.41-.86-18.9 3.28l-4.66 3.51-19.73 2.37c1.92-1.45 3.65-3.19 5.07-5.29l19.46-28.62c5.52-8.12 5.54-19.1.04-27.24l-41.47-61.43c-4.09-6.06-10.66-9.66-17.66-9.68h-.07c-6.92 0-13.43 3.51-17.54 9.43l-2.52-34.45c-.45-6.15-3.17-11.86-7.57-15.87l-55.34-50.46c-5.32-4.85-12.5-6.69-19.31-4.94-1.88.48-3.66 1.25-5.32 2.21 0-.94-.06-1.89-.17-2.83-.89-7.4-5.06-13.9-11.2-17.47l-36.31-21.1c-6.15-3.57-13.53-3.79-19.85-.57-6.32 3.21-10.81 9.46-12.08 16.8l-1.8 10.47-39.59 77.37-7.28 7.29c-5.1 5.11-7.6 12.52-6.71 19.92s5.06 13.9 11.2 17.47l36.31 21.1c2.66 1.54 5.55 2.43 8.48 2.71.1.1.19.21.3.31l55.34 50.46c3.97 3.62 9.01 5.59 14.19 5.59.47 0 .95-.03 1.43-.06-.36 5.37 1.02 10.78 4.04 15.25l43.07 63.8c1.23 1.83 2.7 3.39 4.31 4.73l12.01 32.95c2.29 6.28 7.01 11.19 12.96 13.47-2.94 5.96-3.32 12.98-1.03 19.26l12.49 34.28c-.56 2.63-.7 5.38-.36 8.13l8.92 73.12c1.21 9.93 8.25 17.92 17.47 19.84l34.08 7.08c1.39.29 2.79.43 4.18.43 6.69 0 13.12-3.29 17.3-9.07 5.05-6.98 5.95-16.41 2.35-24.34l-6.02-13.26-.15-1.23 48.34-6.69 10.72 2.23c6.89 1.43 14-.76 19.12-5.87 5.12-5.12 7.61-12.55 6.71-19.96Zm-133.63-171.29a23.7 23.7 0 0 0-2.39-3.63l5.95-4.57c2.26 2.95 5.2 5.27 8.53 6.74l-12.1 1.45Z" class="cls-3"/><path d="m530.11 947.35-1.76 13.92 1.57 2.19 70.74 10.14 15.17-3.14-5.71 45.24-13.85-7.3-70.74-10.14-2.06 1.67-1.76 13.92 3.49 19.2-31.5-16.72 10-79.26 34.53-7.26zM641.42 883.58l-10.26-9.32-29.64-12.93-2.39 1.07-7.63 19.86 1 2.55 29.64 12.93 13.45 1.02-15.32 39.89-10.26-9.32-82.99-36.21-13.45-1.02 15.32-39.89 10.26 9.32 23.71 10.34 2.39-1.07 7.63-19.86-1-2.54-23.71-10.35-13.45-1.02 15.32-39.89 10.26 9.32 82.99 36.21 13.45 1.02zM707.7 769.8 664 833.13l-7.83-11.7-72.25-56.63-12.82-4.48 42.07-60.97 31.54 10.92-12.87 9.77-16.81 24.36.39 2.73 8.85 6.94 2.56-.42 6.51-9.43 3.8-12.76 27.87 21.84-10.29 7.67-6.51 9.43.39 2.73 12.53 9.82 3.84-.62 17.35-25.14 5.34-17.61 20.03 30.23ZM779.24 575.84l54.12 92.76-19.43 12.88-62.97-34.06-6.97-4.57 4.64 6.11 25.13 43.06 10.34 9.23-31.24 20.7-3.19-13.96-47.35-81.16-11.12-8.71 30.77-20.39 50.48 27.41 6.97 4.57-4.64-6.11-18.85-32.3-10.34-9.23 30.46-20.19zM918.73 638.72l-70.31 23.77.14-14.37-27.11-91.11-7.89-11.66 67.69-22.88 19.46 28.62-15.8-.18-27.04 9.14-1.19 2.45 3.32 11.16 2.3 1.27 10.47-3.54 10.12-7.92 10.46 35.14-12.56-.26-10.47 3.54-1.19 2.45 4.7 15.81 3.45 1.9 27.91-9.44 14.04-10.88-.51 37.01ZM993.77 631.11l-2.51-12.55-14.27-26.48-1.12-3.84-.7 3.95-11.31 28.05-1.14 12.77-40.57 2.5 9.36-13.28 24.22-50.34-.18-3.31-26.76-43.88-10.74-12.04 42.57-2.62 2.51 12.55 11.21 20.8 1.13 3.84.7-3.95 8.89-22.04 1.14-12.77 40.2-2.48-9.36 13.28-21.03 44.87.18 3.31 30.34 48.94 10.74 12.04-43.49 2.68ZM1121.2 552.55l-12.95-2.57-2.13 1.56-13.08 74.77 2.17 16.3-42.1-8.37 7.54-14.37 13.08-74.77-1.46-2.27-12.95-2.57-18.16 2.74 17.26-32.68 73.76 14.66 5.05 37.11-16.02-9.53ZM1171.84 671.98l9.83-9.84 42.93-83.91 2.44-14.13 36.31 21.1-9.83 9.84-42.93 83.91-2.44 14.13zM1276.01 749.32l-55.34-50.46 11.53-7.46 58.29-72.62 5.13-13.29 55.34 50.46 2.61 35.75-44.02 54.83-33.54 2.78Zm42.42-67.85 2.39-9.88-3.8-9.37-9.04-8.24-2.58.21-36.88 45.94.3 4.12 8.34 7.61 9.27 2.55 8.79-4.05 23.2-28.9ZM1342.27 837.99l-43.07-63.8 12.86-4.33 72.79-55.81 7.94-11.61 41.47 61.43-19.46 28.62-4.75-16.06-16.57-24.54-2.55-.44-8.91 6.83-.42 2.72 6.41 9.5 10.21 7.79-28.08 21.53-3.68-12.8-6.41-9.5-2.55-.44-12.63 9.68-.62 4.08 17.1 25.33 14.07 10.83-33.15 11ZM1373.14 913.57l12.6-3.12 8.52-6.25 1.04-2.52-10.27-28.18-2.37-1.11-10.18 1.7-11.28 6.76-14.44-39.64 14.33 1.6 94.05-11.31 9.24-6.96 21.2 58.18-11.23 1.51-76.55 59.31-9.62 11.31-15.04-41.27Zm74.36-49.2 5.64-3.38-6.3 1.56-35.4 5.24-1.04 2.52 5.5 15.09 2.37 1.11zM1395.5 1034.53l-8.92-73.12 13.25 2.69 88.93-12.32 12.16-6.21 5.38 44.1-14.2-2.95-70.78 9.8-2.37 3.28 3.07 25.15 7.57 16.65-34.08-7.08Z" class="cls-2"/></svg>