<?xml version="1.0" encoding="utf-8"?>
<!-- Generator: Adobe Illustrator 19.2.1, SVG Export Plug-In . SVG Version: 6.00 Build 0)  -->
<svg version="1.1" id="layer" xmlns="http://www.w3.org/2000/svg" xmlns:xlink="http://www.w3.org/1999/xlink" x="0px" y="0px"
	 viewBox="0 0 652 652" style="enable-background:new 0 0 652 652;" xml:space="preserve">
<style type="text/css">
	.st0{fill:#204667;}
	.st1{fill:#31B0CD;}
</style>
<path class="st0" d="M64,333.5v14.8H21.1v-14.8H64z M30.9,316.4h19.7v66.4c-0.1,1.5,0.2,2.9,0.8,4.2c0.5,1,1.3,1.7,2.3,2.1
	c1.1,0.4,2.3,0.6,3.5,0.6c0.9,0,1.9-0.1,2.8-0.3l2.1-0.4l3.1,14.7c-1,0.3-2.4,0.7-4.2,1.1c-2.2,0.5-4.3,0.7-6.5,0.8
	c-4.2,0.2-8.4-0.4-12.4-1.9c-3.4-1.3-6.3-3.7-8.3-6.8c-2.1-3.5-3.1-7.5-2.9-11.6V316.4z M84.2,324.3c-2.8,0.1-5.5-1-7.5-2.9
	c-3.9-3.5-4.2-9.5-0.7-13.4c0.2-0.2,0.4-0.5,0.7-0.7c4.3-3.9,10.8-3.9,15.1,0c3.9,3.5,4.2,9.5,0.7,13.4c-0.2,0.2-0.4,0.5-0.7,0.7
	C89.7,323.3,87,324.4,84.2,324.3z M74.3,404.8v-71.3H94v71.3H74.3z M104.6,404.8v-71.3h18.8v12.6h0.8c1.4-4,4-7.5,7.4-9.9
	c7.6-4.8,17.3-4.8,24.9,0c3.4,2.4,5.9,5.9,6.9,9.9h0.7c1.4-4.1,4.2-7.5,7.9-9.8c4.1-2.5,8.8-3.8,13.6-3.7c6.7,0,12.1,2.1,16.2,6.3
	c4.2,4.2,6.2,10.2,6.2,17.9v48h-19.8v-44.1c0-4-1-6.9-3.1-8.9c-2.1-2-5-3.1-7.9-3c-3.2-0.2-6.3,1.1-8.4,3.5c-2.1,2.5-3.2,5.7-3,9
	v43.5h-19.2v-44.5c0.2-3.1-0.9-6.1-3-8.3c-2.1-2.1-4.9-3.2-7.9-3.1c-2.1,0-4.1,0.5-5.9,1.6c-1.8,1.1-3.2,2.7-4.2,4.6
	c-1.1,2.1-1.6,4.5-1.5,6.9v42.7H104.6z M249.6,406.1c-6.6,0.2-13.1-1.4-18.9-4.5c-5.2-2.9-9.5-7.3-12.2-12.7
	c-5.7-12.3-5.7-26.5,0-38.8c2.7-5.4,6.9-9.9,12-12.9c5.5-3.2,11.9-4.8,18.3-4.6c4.5,0,8.9,0.8,13.1,2.3c4,1.5,7.6,3.8,10.7,6.7
	c3.2,3.2,5.6,7.1,7.1,11.3c1.8,5.1,2.7,10.5,2.5,15.9v5.4h-60.2v-12.4h41.5c0-2.6-0.6-5.2-1.9-7.6c-1.2-2.2-3-3.9-5.1-5.2
	c-2.3-1.3-4.9-1.9-7.6-1.9c-2.8-0.1-5.5,0.7-8,2.1c-2.3,1.3-4.1,3.2-5.4,5.5c-1.3,2.3-2,5-2,7.7v11.6c-0.1,3.2,0.6,6.3,2,9.1
	c1.2,2.5,3.2,4.6,5.6,5.9c2.6,1.4,5.6,2.2,8.6,2.1c2,0,4.1-0.3,6-0.9c1.7-0.6,3.3-1.5,4.7-2.8c1.3-1.3,2.3-2.8,3-4.5l18.3,1.2
	c-0.9,4.3-2.8,8.3-5.7,11.5c-3,3.4-6.8,6-11,7.6C260.2,405.3,254.9,406.2,249.6,406.1z M309.7,309.8v95H290v-95H309.7z M332.5,431.5
	c-2.4,0-4.7-0.2-7-0.6c-1.8-0.3-3.7-0.8-5.4-1.5l4.5-14.7c2,0.7,4.1,1,6.3,1.2c1.7,0.1,3.4-0.4,4.9-1.3c1.6-1.2,2.8-2.8,3.4-4.7
	l1.2-3l-25.6-73.3h20.8l14.7,52.3h0.7l14.9-52.3h20.9L359,412.4c-1.2,3.6-3,7-5.4,10c-2.3,2.9-5.2,5.1-8.6,6.6
	C341,430.8,336.8,431.6,332.5,431.5z M419.1,406.2c-12.2,0.5-23.5-6.6-28.4-17.8c-2.7-6-4-12.4-3.9-19c-0.1-6.6,1.2-13.2,4-19.2
	c2.5-5.3,6.3-9.8,11.2-13c5-3.2,10.9-4.8,16.9-4.7c4.7-0.1,9.3,0.9,13.5,2.8c3.9,1.7,7.3,4.4,9.9,7.8c2.6,3.4,4.2,7.4,4.8,11.7
	h-10.9c-0.9-3.4-2.9-6.4-5.5-8.6c-2.9-2.5-6.7-3.8-11.5-3.8c-4-0.1-7.9,1.1-11.2,3.3c-3.3,2.3-5.9,5.6-7.5,9.3
	c-1.9,4.5-2.8,9.3-2.7,14.1c-0.1,4.9,0.8,9.8,2.6,14.4c1.5,3.8,4.1,7.1,7.4,9.5c3.3,2.3,7.3,3.5,11.3,3.4c2.7,0,5.3-0.5,7.7-1.5
	c2.3-1,4.3-2.4,5.9-4.3c1.7-1.9,2.8-4.2,3.5-6.7h10.9c-0.6,4.1-2.2,8-4.6,11.3c-2.5,3.4-5.8,6.2-9.6,8
	C428.6,405.3,423.8,406.3,419.1,406.2z M478.1,406.4c-4.2,0.1-8.4-0.8-12.3-2.6c-7.6-3.4-12.3-11-12-19.3c-0.2-3.5,0.7-6.9,2.4-10
	c1.6-2.5,3.8-4.6,6.4-6c2.8-1.5,5.8-2.6,8.9-3.3c3.3-0.7,6.5-1.3,9.9-1.7c4.3-0.6,7.8-1,10.6-1.3c2.1-0.1,4.1-0.6,5.9-1.5
	c1.3-0.8,2-2.2,1.9-3.7v-0.4c0-4.6-1.2-8.2-3.7-10.7s-6.3-3.8-11.3-3.8c-5.2,0-9.3,1.2-12.3,3.5c-2.6,1.9-4.8,4.4-6.3,7.3l-10.4-3.7
	c1.6-4,4.1-7.4,7.4-10.1c3-2.4,6.5-4.1,10.2-5.1c3.6-1,7.2-1.5,10.9-1.5c2.7,0,5.3,0.3,7.9,0.8c3.1,0.6,6,1.7,8.6,3.4
	c3,1.8,5.4,4.5,7,7.6c1.9,3.4,2.8,7.9,2.8,13.5v46.9h-10.9v-9.7h-0.6c-1,1.8-2.2,3.5-3.7,5c-2,1.9-4.3,3.5-6.9,4.5
	C485.3,405.9,481.7,406.5,478.1,406.4z M479.8,396.6c3.8,0.1,7.6-0.8,11-2.5c2.8-1.5,5.2-3.8,6.8-6.6c1.5-2.6,2.3-5.5,2.3-8.5v-10
	c-0.9,0.8-1.9,1.3-3,1.5c-1.8,0.5-3.6,0.9-5.4,1.2c-2,0.3-4,0.6-5.9,0.8l-4.6,0.6c-2.7,0.3-5.4,0.9-8,1.8c-2.3,0.7-4.3,2-5.9,3.7
	c-1.6,1.8-2.4,4.2-2.3,6.6c-0.2,3.4,1.4,6.7,4.2,8.6C472.2,395.7,475.9,396.7,479.8,396.6L479.8,396.6z M521,404.8v-71.3h10.6v10.8
	h0.7c1.3-3.6,3.8-6.6,7-8.6c3.4-2.2,7.4-3.4,11.5-3.3c0.8,0,1.8,0,3,0s2.1,0,2.7,0.1v11.1c-0.4-0.1-1.2-0.2-2.5-0.4
	c-1.4-0.2-2.8-0.3-4.2-0.3c-3.2-0.1-6.4,0.7-9.2,2.2c-2.6,1.4-4.8,3.4-6.4,5.9c-1.6,2.6-2.4,5.6-2.3,8.6v45.2H521z M591.6,406.2
	c-6.2,0.2-12.4-1.4-17.7-4.6c-5-3.1-9-7.5-11.5-12.8c-2.8-6-4.2-12.6-4-19.2c-0.1-6.7,1.2-13.3,4-19.3c2.4-5.3,6.3-9.8,11.2-13.1
	c5-3.2,10.9-4.8,16.9-4.7c3.7,0,7.5,0.6,11,1.9c3.7,1.3,7.1,3.3,9.9,6c3.2,3.1,5.6,6.8,7.1,11c1.9,5.4,2.8,11.1,2.6,16.8v4.6h-54.9
	v-9.5H610c0.1-3.7-0.8-7.4-2.4-10.8c-1.5-3.1-3.9-5.7-6.8-7.5c-3.1-1.9-6.7-2.8-10.3-2.7c-4-0.1-7.9,1-11.3,3.2
	c-3.2,2.1-5.7,5-7.4,8.5c-1.7,3.4-2.6,7.2-2.5,11v6.3c-0.1,4.7,0.8,9.4,2.8,13.7c1.7,3.5,4.4,6.5,7.8,8.5c3.6,2,7.6,3,11.6,2.9
	c2.7,0,5.3-0.4,7.8-1.2c2.3-0.8,4.3-2,6.1-3.7c1.8-1.7,3.1-3.9,3.9-6.2l10.6,3c-1.1,3.5-3,6.8-5.6,9.4c-2.8,2.8-6.1,4.9-9.7,6.3
	C600.5,405.5,596.1,406.3,591.6,406.2z"/>
<path class="st1" d="M484.5,211.4h-91.2v91.2l0,0v27.7l27.7-27.7h63.5L484.5,211.4z M467.1,285.1h-56.3v-56.3h56.3V285.1z"/>
</svg>
